HIERARCHY
ROOT pelvis
{
	OFFSET 0.000000 0.000000 0.000000
	CHANNELS 6 Xposition Yposition Zposition Zrotation Xrotation Yrotation
	JOINT lfemur
	{
		OFFSET 11.446000 0.000000 0.000000
		CHANNELS 3 Zrotation Xrotation Yrotation
		JOINT ltibia
		{
			OFFSET 0.000000 -42.030400 0.000000
			CHANNELS 3 Zrotation Xrotation Yrotation
			JOINT lfoot
			{
				OFFSET 0.000000 -39.930200 0.000000
				CHANNELS 3 Zrotation Xrotation Yrotation
				JOINT ltoes
				{
					OFFSET 0.000000 0.000000 11.775800
					CHANNELS 3 Zrotation Xrotation Yrotation
					End Site
					{
					    OFFSET 0.000000 0.000000 5.000000
					}
				}
			}
		}
	}
	JOINT rfemur
	{
		OFFSET -11.446000 0.000000 0.000000
		CHANNELS 3 Zrotation Xrotation Yrotation
		JOINT rtibia
		{
			OFFSET 0.000000 -42.030400 0.000000
			CHANNELS 3 Zrotation Xrotation Yrotation
			JOINT rfoot
			{
				OFFSET 0.000000 -39.930200 0.000000
				CHANNELS 3 Zrotation Xrotation Yrotation
				JOINT rtoes
				{
					OFFSET 0.000000 0.000000 11.775800
					CHANNELS 3 Zrotation Xrotation Yrotation
					End Site
					{
					    OFFSET 0.000000 0.000000 5.000000
					}
				}
			}
		}
	}
	JOINT thorax
	{
		OFFSET 0.000000 11.255600 -5.000000
		CHANNELS 3 Zrotation Xrotation Yrotation
		JOINT head
		{
			OFFSET 0.000000 43.799300 0.000000
			CHANNELS 3 Zrotation Xrotation Yrotation
			End Site
			{
			    OFFSET 0.000000 5.000000 0.000000
			}
		}
		JOINT lclavicle
		{
			OFFSET 0.000000 39.863000 0.000000
			CHANNELS 3 Zrotation Xrotation Yrotation
			JOINT lhumerus
			{
				OFFSET 17.380600 4.958300 0.000000
				CHANNELS 3 Zrotation Xrotation Yrotation
				JOINT lradius
				{
					OFFSET 0.000000 -27.561300 0.000000
					CHANNELS 3 Zrotation Xrotation Yrotation
					JOINT lhand
					{
						OFFSET 0.000000 -26.933000 0.000000
						CHANNELS 3 Zrotation Xrotation Yrotation
						End Site
						{
						    OFFSET 0.000000 -5.000000 0.000000
						}
					}
				}
			}
		}
		JOINT rclavicle
		{
			OFFSET 0.000000 39.863000 0.000000
			CHANNELS 3 Zrotation Xrotation Yrotation
			JOINT rhumerus
			{
				OFFSET -17.380600 4.958300 0.000000
				CHANNELS 3 Zrotation Xrotation Yrotation
				JOINT rradius
				{
					OFFSET 0.000000 -27.561300 0.000000
					CHANNELS 3 Zrotation Xrotation Yrotation
					JOINT rhand
					{
						OFFSET 0.000000 -26.933000 0.000000
						CHANNELS 3 Zrotation Xrotation Yrotation
						End Site
						{
						    OFFSET 0.000000 -5.000000 0.000000
						}
					}
				}
			}
		}
	}
}
MOTION
Frames:	6
Frame Time:	0.0333333
59.242000 88.270100 9.751600 0.224977 -3.047536 -89.603416 -3.580685 -1.057675 -3.308770 -0.000000 10.998919 -0.000000 0.000000 5.588404 7.066192 0.000000 -1.414549 -0.000000 -1.589899 -2.222505 -3.851692 -0.000000 10.739178 -0.000000 -0.000000 5.147207 2.443243 0.000000 -29.516078 -0.000000 -7.319284 0.665339 0.302008 15.459070 21.766539 1.343909 -2.419529 0.000000 3.193252 86.069419 -2.482397 60.908351 0.000000 -12.510239 -53.516904 10.110341 0.049388 -0.000000 3.318906 -0.000000 0.065622 -77.576437 9.947285 -57.652652 0.000001 -19.751386 33.857604 -7.788837 -0.761138 -0.000000 
59.044100 88.466400 9.697000 0.032558 -3.590306 -89.674416 -4.671975 -0.766492 -4.189016 0.000000 11.081615 0.000000 0.000000 6.010672 4.439325 0.000000 -1.477452 -0.000000 -2.066763 -1.455720 -3.830014 -0.000000 9.825242 -0.000000 -0.000000 5.600720 2.491273 0.000000 -29.515323 -0.000000 -7.729947 0.660227 0.312525 15.157063 22.206835 1.430614 -2.785811 0.000000 2.967515 86.395985 -2.109856 60.389582 0.000000 -12.621227 -53.490074 9.985557 0.088415 -0.000000 2.982682 -0.000000 0.193589 -77.391060 9.912696 -57.772166 -0.000000 -19.872665 34.373775 -7.890013 -0.727289 0.000000 
58.871600 88.547800 9.710100 -0.181815 -3.798979 -89.885502 -5.661531 -0.373797 -6.475428 -0.000000 10.753968 -0.000000 -0.000000 6.288660 2.983195 -0.000000 -1.526044 0.000000 -2.242214 -0.937912 -3.541569 -0.000000 9.385228 -0.000000 0.000000 5.806301 2.309315 0.000000 -29.515576 0.000000 -7.779920 0.610134 0.382406 15.060182 22.449076 1.364914 -2.856995 0.000000 3.324599 86.668583 -2.548660 60.632806 0.000001 -12.288534 -53.513026 9.863995 0.126928 -0.000000 2.780005 -0.000000 0.462793 -77.421959 10.013918 -57.553832 -0.000000 -19.871671 34.184611 -7.548710 -0.843165 -0.000000 
58.771500 88.426900 9.769600 -0.246914 -3.363382 -90.087789 -5.911783 -0.542046 -7.562079 -0.000000 10.946214 -0.000000 -0.000000 6.322022 2.853143 0.000000 -1.473137 -0.000000 -1.827417 -1.063245 -3.301037 0.000000 9.840276 0.000000 -0.000000 5.516237 2.136941 0.000000 -29.515897 -0.000000 -7.109235 0.451493 0.448113 15.052420 22.489734 1.256467 -2.710690 0.000000 3.289319 86.610017 -2.214712 60.281009 0.000000 -12.636013 -53.308383 9.398854 0.037105 -0.000000 2.377743 0.000000 0.620094 -77.268144 9.921278 -58.031447 0.000001 -19.875608 34.474885 -7.568226 -0.836377 -0.000000 
58.676200 88.132100 9.875800 -0.434002 -2.491920 -90.063184 -5.337088 -0.555023 -6.781426 0.000000 11.150009 0.000000 0.000000 5.518540 4.185910 0.000000 -1.428495 -0.000000 -1.078983 -1.379204 -3.479633 -0.000000 11.043337 -0.000000 0.000000 4.754161 2.254396 -0.000000 -29.516508 -0.000000 -5.979368 0.546278 0.394780 15.076685 22.526876 1.282363 -2.260525 -0.000000 3.134635 86.524866 -1.918729 61.214991 -0.000000 -12.595348 -54.040986 9.782192 0.108147 -0.000000 2.252359 0.000000 0.778283 -77.613111 10.260644 -57.688149 -0.000001 -20.043487 34.169290 -7.872737 -0.733617 -0.000000 
58.618200 87.882000 10.136900 -1.000407 -2.151753 -89.940508 -5.247784 0.187980 -7.344574 0.000000 11.078594 -0.000000 -0.000000 4.403619 4.678399 -0.000000 -1.386173 -0.000000 -0.993404 -1.591916 -3.847776 -0.000000 12.780895 -0.000000 0.000000 3.643772 2.403379 0.000000 -29.519046 0.000000 -5.395404 1.194638 0.337727 15.330974 22.176497 1.072114 -1.738011 0.000000 2.939128 86.311450 -1.430086 61.315782 -0.000000 -12.787552 -54.831361 10.039816 0.416777 -0.000000 2.192126 0.000000 0.618738 -77.809574 10.269945 -57.985699 0.000000 -20.295512 34.095358 -7.960114 -0.705713 -0.000000 
